<svg xmlns="http://www.w3.org/2000/svg" fill="none" viewBox="0 0 128 128">
    <style>
        path { fill: #000; }
        @media (prefers-color-scheme: dark) {
            path { fill: #fff; }
        }
    </style>
    <path d="M64 20a44 44 0 1 0 0 88 44 44 0 0 0 0-88zm0 80a36 36 0 1 1 0-72 36 36 0 0 1 0 72z"/>
    <path d="M64 36a28 28 0 1 0 0 56 28 28 0 0 0 0-56zm0 48a20 20 0 1 1 0-40 20 20 0 0 1 0 40z"/>
    <path d="M64 52a12 12 0 1 0 0 24 12 12 0 0 0 0-24zm0 16a4 4 0 1 1 0-8 4 4 0 0 1 0 8z"/>
    <path d="M32 64h-8a4 4 0 0 0 0 8h8a4 4 0 0 0 0-8zM104 64h-8a4 4 0 0 0 0 8h8a4 4 0 0 0 0-8zM64 32v-8a4 4 0 0 0-8 0v8a4 4 0 0 0 8 0zM64 104v-8a4 4 0 0 0-8 0v8a4 4 0 0 0 8 0z"/>
</svg>